<?xml version="1.0" encoding="UTF-8" standalone="no"?>
<svg
   xmlns:dc="http://purl.org/dc/elements/1.1/"
   xmlns:cc="http://creativecommons.org/ns#"
   xmlns:rdf="http://www.w3.org/1999/02/22-rdf-syntax-ns#"
   xmlns:svg="http://www.w3.org/2000/svg"
   xmlns="http://www.w3.org/2000/svg"
   xmlns:sodipodi="http://sodipodi.sourceforge.net/DTD/sodipodi-0.dtd"
   xmlns:inkscape="http://www.inkscape.org/namespaces/inkscape"
   xml:space="preserve"
   width="210"
   height="260"
   version="1.1"
   style="clip-rule:evenodd;fill-rule:evenodd;image-rendering:optimizeQuality;shape-rendering:geometricPrecision;text-rendering:geometricPrecision"
   viewBox="0 0 5556.2499 6879.1665"
   id="svg14"
   sodipodi:docname="portraitsWorksLogo.svg"
   inkscape:version="1.0.2 (e86c870879, 2021-01-15)"><metadata
   id="metadata18"><rdf:RDF><cc:Work
       rdf:about=""><dc:format>image/svg+xml</dc:format><dc:type
         rdf:resource="http://purl.org/dc/dcmitype/StillImage" /><dc:title></dc:title></cc:Work></rdf:RDF></metadata><sodipodi:namedview
   pagecolor="#ffffff"
   bordercolor="#666666"
   borderopacity="1"
   objecttolerance="10"
   gridtolerance="10"
   guidetolerance="10"
   inkscape:pageopacity="0"
   inkscape:pageshadow="2"
   inkscape:window-width="2560"
   inkscape:window-height="1406"
   id="namedview16"
   showgrid="false"
   inkscape:zoom="1.5910755"
   inkscape:cx="124.64595"
   inkscape:cy="193.1262"
   inkscape:window-x="0"
   inkscape:window-y="0"
   inkscape:window-maximized="1"
   inkscape:current-layer="svg14"
   units="px" />
 <defs
   id="defs4">
  <style
   type="text/css"
   id="style2">
   <![CDATA[
    .str0 {stroke:#373435;stroke-width:20;stroke-miterlimit:22.9256}
    .fil1 {fill:#373435}
    .fil0 {fill:#373435;fill-rule:nonzero}
   ]]>
  </style>
 </defs>
 <g
   id="Layer_x0020_1"
   transform="translate(-2206.9197,-3160.2668)">
  <metadata
   id="CorelCorpID_0Corel-Layer" />
  <path
   class="fil0"
   d="m 2859.91,9954.94 c -12.62,-5.73 -22.84,-15.58 -29.67,-28.39 -7.63,-13.29 -13.32,-27.1 -17.4,-42.7 -4.59,-17.57 -7.54,-34.18 -9.02,-50.48 182.79,-520.25 357.06,-1047.59 523.25,-1581.78 -57.85,6.77 -125.93,11.38 -205.51,14.17 -79.41,1.98 -161.65,-1.55 -248.19,-10.92 -85.89,-9.53 -168.28,-26.91 -246.85,-53.65 -79.05,-25.91 -147.64,-64.99 -205.42,-115.93 -57.96,-51.57 -98.3,-118.18 -119.88,-200.8 l -2.05,-7.81 c -17.63,-142.03 18.93,-291.99 109.92,-449.19 90.98,-157.21 215.05,-315.44 371.1,-473.66 156.05,-158.22 322.28,-309.38 498.87,-452.81 175.77,-143.92 340.12,-273.04 492.39,-387.19 121.67,-92.94 222.61,-172.13 301.98,-238.04 235.36,-589.93 360.33,-1198.45 640.87,-1771.52 -220.46,175.05 -442.85,382.59 -667.53,621.29 -224.85,238.05 -416.11,474.28 -573.15,708.53 -25.48,43.49 -52.42,86.67 -79.85,130.67 -48.12,76.51 -93.6,155.12 -136.29,236.46 -82.96,158.31 -135.34,330.57 -88.91,508.35 24.55,93.9 99.48,13.7 113.25,66.32 4.25,16.27 -9.25,36.47 -41.11,60.79 -32.06,23.66 -69.69,41.83 -114.58,53.55 -35.15,9.19 -72.14,11.2 -110.36,5.91 -38.06,-4.66 -71.5,-20.94 -100.33,-48.85 -22.34,-29.61 -38.5,-62.23 -47.68,-97.36 -22.26,-85.23 -12.72,-184.33 29.14,-298.12 41.37,-112.98 100.49,-229.9 177.02,-349.28 77.03,-120.2 158.18,-235.23 244.59,-346.07 86.42,-110.84 165.3,-207.9 235.86,-291.67 28.16,-35.85 54.41,-68.42 78.07,-97.54 201.02,-238.78 415.05,-467.75 643.18,-687.91 455.45,-438.81 972.9,-798.39 1578.57,-994.13 154.14,-40.27 303.71,-57.81 463.65,-50.24 123.2,6.03 238.16,33.7 344.55,84.43 360.25,169.92 314.41,507.37 139.67,792.66 -49.37,82.41 -101.39,159.93 -156.08,232.6 -45.21,74.37 -97.32,143.57 -154.38,207.14 -57.07,63.56 -116.6,125.68 -178.93,185.05 -97.2,93.51 -187.15,193.46 -269.68,300.51 266.21,-37.65 527.08,-21.52 782.92,48.22 -5.79,-179.12 17.55,-281.76 -142.85,-384.97 -24.47,-16.54 -46.99,-33.59 -66.74,-50.67 -20.41,-16.92 -33.01,-35.87 -38.28,-56.02 -3.39,-13.02 -2.07,-26.57 3.63,-41.97 15.92,-37.51 35.82,-67.73 59.9,-90.01 24.23,-21.62 50.34,-36.09 78.31,-43.4 59.2,-15.47 119.86,-1.42 182.15,42.78 61.63,44.35 103.41,108.49 125.34,192.43 22.46,157.29 30.53,326.66 24.18,507.93 71.45,29.61 142.26,66.82 211.8,112.16 83.41,53.27 156.82,116.11 219.56,188.67 62.75,72.57 106.18,153.66 129.8,244.09 15.64,59.86 20.55,123.91 13.93,191.66 -43.7,186.57 -124.61,355.74 -243.53,507.04 -119.11,150.66 -248.62,288.05 -390.02,411.87 -121.17,108.59 -248.36,208.54 -381.54,299.99 -24.76,65.15 -50.37,129.97 -76.87,194.45 -124.69,302.24 -261.36,579.81 -411.04,831.58 -148.86,252.26 -304.52,462.52 -465.2,629.59 -161.16,167.91 -320.22,272.01 -476.37,312.81 -33.18,8.66 -65.74,14.39 -98.02,15.87 -130.89,7.09 -249.07,-32.92 -355.19,-119.87 -105.47,-87.13 -198.45,-211.57 -278.29,-373.5 -76.53,-153.82 -141.04,-329.02 -194.26,-525.98 -237.12,57.03 -467.21,102.64 -690.55,136.9 l -10.26,35.64 c -216.46,754.34 -393.98,1303.9 -531.56,1649.82 -26.95,27.2 -57.58,45.63 -92.06,54.64 -24.08,6.29 -48.06,4.91 -71.97,-4.14 z m 538.37,-1934.29 c 17.68,-57.85 35.28,-115.8 52.77,-173.81 169.77,-561.88 308.62,-1072.96 416.95,-1533.36 -149.5,95.28 -318.24,217.84 -505.64,368 -214.94,172.22 -383.83,334.49 -506.85,486.17 -105.54,136 -178.16,257.13 -216.98,363.89 -38.17,106.58 -47.83,197.36 -28.28,272.18 42.5,162.65 209.69,241.29 501.4,235.28 95.82,-3.66 191.33,-9.73 286.63,-18.35 z M 4223.91,6173.4 c 1.06,116.13 8.39,267.74 21.79,455.97 15.2,204.54 39.24,426.91 72.6,666.32 26.13,187.53 59.61,368.89 100.33,543.75 31.43,-7.82 62.81,-15.82 94.15,-24.01 91.73,-23.96 183.77,-49.41 275.49,-76.15 442.74,-130.27 879.35,-315.91 1311.47,-556 125.38,-69.87 242.33,-140.53 350.89,-212 20.66,-55.08 40.85,-110.81 60.57,-167.18 120.17,-343.46 208.05,-685.43 264.32,-1026.08 27.51,-166.61 44.12,-326.55 49.75,-479.88 -125.46,-40.01 -255.78,-62.6 -391.43,-68.25 -181.29,-7.54 -355.94,10.29 -523.79,54.14 l -24.73,6.46 c -24.4,4.99 -49.3,10.8 -74.67,17.42 -161.35,42.16 -331.28,104.63 -510.17,186.12 -178.7,82.12 -340.58,167.5 -484.48,255.14 -33.24,19.12 -63.87,37.53 -93.37,54.97 -101.31,59.13 -192.52,117.03 -274.11,174.48 -71.71,49.82 -146.4,114.85 -224.61,194.78 z m 242.5,1855.64 c 39.98,145.78 85.73,278.67 137.2,398.65 270.75,622.92 638.68,513.74 1012.15,72.65 165.42,-196.82 326.42,-442.51 482,-738.23 78.2,-148.16 151.82,-302.51 220.94,-462.93 -8.57,4.81 -17.16,9.59 -25.77,14.34 -251.99,139.49 -511.65,262.93 -777.5,370.61 -325.72,131.3 -674.99,246.14 -1049.02,344.91 z m 2570.56,-2643.8 c -2.3,24.54 -4.84,49.25 -7.62,74.17 -33.07,296.37 -93.28,603.32 -179.13,921.13 -35.16,130.13 -73.56,259.01 -115.2,386.64 123.31,-97.08 275.36,-228.02 373.06,-350.51 349.51,-392.81 507.48,-729.07 -71.11,-1031.43 z M 4208.73,7888.83 c -94.28,-420.31 -140.63,-884.54 -139.18,-1393.07 -164.34,433.41 -308.92,1040.44 -439.57,1498.82 62.56,-8.43 125.03,-18.01 187.45,-28.77 130.91,-22.5 261.41,-48.19 391.3,-76.98 z m 924.95,-4073.47 c -48.49,27.27 -96.14,55.01 -143.97,82.1 -210.68,276.69 -482.52,1394.17 -628.38,1795.35 314.75,-173.27 637.17,-330.48 968.22,-473.27 220.55,-73.6 418.99,-186.61 594.85,-338.19 250.21,-217.4 592.89,-625.49 745.65,-928.74 107.74,-213.81 68.49,-436.54 -184.39,-503.66 -96.52,-26.23 -198.84,-32.15 -307.16,-18.44 -424.92,51.13 -675.7,163.39 -1044.82,384.85 z"
   id="path7" />
  <path
   class="fil0"
   d="m 3727.77,9849.14 v 80.45 h 65.42 c 9.55,0 17.67,-3.31 24.44,-10.02 6.71,-6.64 10.09,-14.69 10.09,-24.04 v -12.12 c 0,-9.35 -3.38,-17.41 -10.22,-24.18 -6.77,-6.7 -14.9,-10.09 -24.31,-10.09 z m 0,-114.58 v 80.45 h 65.42 c 9.55,0 17.67,-3.32 24.44,-10.02 6.71,-6.71 10.09,-14.77 10.09,-24.18 v -12.05 c 0,-9.28 -3.38,-17.34 -10.22,-24.05 -6.77,-6.77 -14.9,-10.15 -24.31,-10.15 z m -34.13,-34.14 h 99.55 c 18.69,0 34.81,6.78 48.35,20.25 13.54,13.48 20.32,29.53 20.32,48.09 v 11.71 c 0,10.02 -2.17,19.78 -6.44,29.26 -4.33,9.48 -10.02,16.93 -17.2,22.34 7.59,6.98 13.41,14.97 17.47,23.78 4.13,8.87 6.17,18.08 6.17,27.56 v 11.71 c 0,18.76 -6.78,34.88 -20.25,48.36 -13.48,13.47 -29.6,20.25 -48.42,20.25 h -99.55 z m 344.23,40.7 c -1.49,-2.5 -2.85,-4.26 -4.07,-5.21 -1.28,-0.88 -2.91,-1.35 -4.87,-1.35 -1.83,0 -3.66,0.61 -5.35,1.76 -1.7,1.22 -3.05,2.71 -4,4.6 l -36.64,72.19 c -1.22,2.37 -2.16,5.29 -2.91,8.74 -0.74,3.45 -1.08,6.84 -1.08,10.09 0,3.45 0.34,6.91 1.08,10.36 0.75,3.45 1.69,6.37 2.91,8.74 l 37.05,71.99 c 1.35,2.5 2.64,4.26 3.99,5.21 1.29,0.88 2.98,1.35 4.95,1.35 1.82,0 3.65,-0.54 5.35,-1.69 1.69,-1.08 3.04,-2.71 3.99,-4.87 l 36.5,-71.79 c 1.15,-2.37 2.17,-5.35 2.92,-8.87 0.81,-3.46 1.21,-6.98 1.21,-10.43 0,-3.39 -0.4,-6.91 -1.21,-10.5 -0.75,-3.59 -1.77,-6.43 -2.92,-8.53 z m 32.5,-11.91 35.35,69.61 c 2.24,4.41 4,9.48 5.35,15.31 1.29,5.82 1.97,11.78 1.97,17.81 0,6.23 -0.68,12.26 -1.97,18.08 -1.35,5.83 -3.11,10.9 -5.35,15.31 l -35.35,69.61 c -5.55,10.43 -11.51,17.88 -17.81,22.22 -6.37,4.4 -14.22,6.57 -23.63,6.57 -9.55,0 -17.48,-2.17 -23.77,-6.57 -6.37,-4.34 -12.26,-11.79 -17.68,-22.22 l -35.35,-69.61 c -2.37,-4.68 -4.2,-9.82 -5.42,-15.58 -1.28,-5.76 -1.89,-11.72 -1.89,-17.81 0,-6.03 0.61,-11.99 1.89,-17.81 1.22,-5.83 3.05,-10.9 5.42,-15.31 l 35.35,-69.61 c 5.42,-10.43 11.31,-17.88 17.68,-22.22 6.29,-4.4 14.22,-6.57 23.77,-6.57 9.41,0 17.26,2.17 23.63,6.57 6.3,4.34 12.26,11.79 17.81,22.22 z m 159.76,119.93 v 80.45 h 65.42 c 9.55,0 17.67,-3.31 24.44,-10.02 6.71,-6.64 10.09,-14.69 10.09,-24.04 v -12.12 c 0,-9.35 -3.38,-17.41 -10.22,-24.18 -6.77,-6.7 -14.9,-10.09 -24.31,-10.09 z m 0,-114.58 v 80.45 h 65.42 c 9.55,0 17.67,-3.32 24.44,-10.02 6.71,-6.71 10.09,-14.77 10.09,-24.18 v -12.05 c 0,-9.28 -3.38,-17.34 -10.22,-24.05 -6.77,-6.77 -14.9,-10.15 -24.31,-10.15 z M 4196,9700.42 h 99.55 c 18.69,0 34.81,6.78 48.35,20.25 13.54,13.48 20.32,29.53 20.32,48.09 v 11.71 c 0,10.02 -2.17,19.78 -6.44,29.26 -4.33,9.48 -10.02,16.93 -17.2,22.34 7.59,6.98 13.41,14.97 17.47,23.78 4.13,8.87 6.17,18.08 6.17,27.56 v 11.71 c 0,18.76 -6.78,34.88 -20.25,48.36 -13.48,13.47 -29.6,20.25 -48.42,20.25 H 4196 Z m 335.29,78.02 -27.57,93.86 h 54.72 z m 18.21,-58.99 64.27,220.91 c 0.41,1.15 0.75,2.37 0.95,3.52 0.2,1.22 0.27,2.24 0.27,3.19 0,4.6 -1.63,8.53 -4.94,11.78 -3.32,3.25 -7.25,4.88 -11.72,4.88 -4,0 -7.52,-1.29 -10.63,-3.86 -3.12,-2.58 -5.22,-6.03 -6.44,-10.23 l -12.66,-43.21 h -74.43 l -12.86,43.01 c -1.63,4.87 -3.8,8.53 -6.64,10.83 -2.84,2.3 -6.43,3.46 -10.83,3.46 -4.34,0 -8.13,-1.63 -11.38,-4.88 -3.25,-3.25 -4.88,-7.04 -4.88,-11.38 0,-1.96 0.07,-3.45 0.21,-4.47 0.13,-1.01 0.33,-1.96 0.6,-2.84 l 64.27,-220.71 c 1.97,-7.11 4.4,-12.05 7.25,-14.83 2.84,-2.77 6.64,-4.2 11.38,-4.2 4.6,0 8.33,1.36 11.1,4 2.78,2.64 5.15,7.65 7.11,15.03 z m 148.86,-19.03 h 45.03 l 89.05,202.76 v -183.73 c 0,-5.82 1.56,-10.43 4.68,-13.88 3.11,-3.45 7.24,-5.15 12.39,-5.15 4.88,0 8.94,1.76 12.19,5.35 3.25,3.59 4.88,8.13 4.88,13.68 v 244.28 h -45.24 l -88.85,-202.02 v 182.99 c 0,5.68 -1.56,10.29 -4.74,13.74 -3.19,3.53 -7.32,5.29 -12.33,5.29 -5.01,0 -9.14,-1.76 -12.32,-5.35 -3.19,-3.59 -4.74,-8.13 -4.74,-13.68 z m 344.23,40.7 c -1.49,-2.5 -2.85,-4.26 -4.07,-5.21 -1.28,-0.88 -2.91,-1.35 -4.87,-1.35 -1.83,0 -3.66,0.61 -5.35,1.76 -1.7,1.22 -3.05,2.71 -4,4.6 l -36.64,72.19 c -1.22,2.37 -2.16,5.29 -2.91,8.74 -0.74,3.45 -1.08,6.84 -1.08,10.09 0,3.45 0.34,6.91 1.08,10.36 0.75,3.45 1.69,6.37 2.91,8.74 l 37.05,71.99 c 1.35,2.5 2.64,4.26 3.99,5.21 1.29,0.88 2.98,1.35 4.95,1.35 1.82,0 3.65,-0.54 5.35,-1.69 1.69,-1.08 3.04,-2.71 3.99,-4.87 l 36.5,-71.79 c 1.15,-2.37 2.17,-5.35 2.92,-8.87 0.81,-3.46 1.21,-6.98 1.21,-10.43 0,-3.39 -0.4,-6.91 -1.21,-10.5 -0.75,-3.59 -1.77,-6.43 -2.92,-8.53 z m 32.5,-11.91 35.35,69.61 c 2.24,4.41 4,9.48 5.35,15.31 1.29,5.82 1.97,11.78 1.97,17.81 0,6.23 -0.68,12.26 -1.97,18.08 -1.35,5.83 -3.11,10.9 -5.35,15.31 l -35.35,69.61 c -5.55,10.43 -11.51,17.88 -17.81,22.22 -6.37,4.4 -14.22,6.57 -23.63,6.57 -9.55,0 -17.48,-2.17 -23.77,-6.57 -6.37,-4.34 -12.26,-11.79 -17.68,-22.22 l -35.35,-69.61 c -2.37,-4.68 -4.2,-9.82 -5.42,-15.58 -1.28,-5.76 -1.89,-11.72 -1.89,-17.81 0,-6.03 0.61,-11.99 1.89,-17.81 1.22,-5.83 3.05,-10.9 5.42,-15.31 l 35.35,-69.61 c 5.42,-10.43 11.31,-17.88 17.68,-22.22 6.29,-4.4 14.22,-6.57 23.77,-6.57 9.41,0 17.26,2.17 23.63,6.57 6.3,4.34 12.26,11.79 17.81,22.22 z m 159.76,-9.76 v 51.61 l 49.98,131.38 49.97,-131.38 v -51.61 c 0,-5.55 1.56,-10.09 4.75,-13.68 3.18,-3.59 7.31,-5.35 12.32,-5.35 5.01,0 9.14,1.76 12.33,5.29 3.18,3.45 4.74,8.06 4.74,13.74 v 58.18 l -67.05,171.4 c -2.1,5.69 -4.47,9.55 -7.04,11.65 -2.57,2.03 -5.89,3.05 -10.02,3.05 -4.2,0 -7.72,-1.16 -10.5,-3.39 -2.78,-2.24 -5.08,-6.03 -6.98,-11.31 l -66.63,-171.4 v -58.18 c 0,-5.82 1.55,-10.43 4.67,-13.88 3.11,-3.45 7.24,-5.15 12.39,-5.15 4.88,0 8.94,1.76 12.19,5.35 3.25,3.59 4.88,8.13 4.88,13.68 z m 301.16,58.99 -27.57,93.86 h 54.72 z m 18.21,-58.99 64.27,220.91 c 0.41,1.15 0.75,2.37 0.95,3.52 0.2,1.22 0.27,2.24 0.27,3.19 0,4.6 -1.63,8.53 -4.94,11.78 -3.32,3.25 -7.25,4.88 -11.72,4.88 -4,0 -7.52,-1.29 -10.63,-3.86 -3.12,-2.58 -5.22,-6.03 -6.44,-10.23 l -12.66,-43.21 h -74.43 l -12.86,43.01 c -1.63,4.87 -3.8,8.53 -6.64,10.83 -2.84,2.3 -6.43,3.46 -10.83,3.46 -4.34,0 -8.13,-1.63 -11.38,-4.88 -3.25,-3.25 -4.88,-7.04 -4.88,-11.38 0,-1.96 0.07,-3.45 0.21,-4.47 0.13,-1.01 0.33,-1.96 0.6,-2.84 l 64.27,-220.71 c 1.97,-7.11 4.4,-12.05 7.25,-14.83 2.84,-2.77 6.64,-4.2 11.38,-4.2 4.6,0 8.33,1.36 11.1,4 2.78,2.64 5.15,7.65 7.11,15.03 z m 182.99,0 v 75.65 l 104.36,-89.33 c 2.1,-1.96 4.13,-3.38 6.09,-4.13 2.03,-0.81 4.2,-1.22 6.57,-1.22 4.61,0 8.67,1.63 11.99,4.88 3.38,3.25 5.08,7.04 5.08,11.38 0,2.77 -0.61,5.41 -1.9,7.92 -1.22,2.57 -3.05,4.81 -5.42,6.77 l -117.83,100.57 117.83,100.84 c 2.24,2.1 4,4.47 5.35,7.04 1.29,2.57 1.97,5.15 1.97,7.65 0,4.34 -1.7,8.13 -5.08,11.38 -3.32,3.25 -7.38,4.88 -11.99,4.88 -2.37,0 -4.54,-0.41 -6.57,-1.22 -1.96,-0.75 -3.99,-2.17 -6.09,-4.13 l -104.36,-89.33 v 75.65 c 0,5.68 -1.56,10.29 -4.74,13.74 -3.19,3.53 -7.32,5.29 -12.33,5.29 -5.01,0 -9.14,-1.76 -12.32,-5.35 -3.19,-3.59 -4.74,-8.13 -4.74,-13.68 v -225.25 c 0,-5.82 1.55,-10.43 4.67,-13.88 3.11,-3.45 7.24,-5.15 12.39,-5.15 4.88,0 8.94,1.76 12.19,5.35 3.25,3.59 4.88,8.13 4.88,13.68 z m 310.1,21.67 c -1.49,-2.5 -2.85,-4.26 -4.07,-5.21 -1.28,-0.88 -2.91,-1.35 -4.87,-1.35 -1.83,0 -3.66,0.61 -5.35,1.76 -1.7,1.22 -3.05,2.71 -4,4.6 l -36.64,72.19 c -1.22,2.37 -2.16,5.29 -2.91,8.74 -0.74,3.45 -1.08,6.84 -1.08,10.09 0,3.45 0.34,6.91 1.08,10.36 0.75,3.45 1.69,6.37 2.91,8.74 l 37.05,71.99 c 1.35,2.5 2.64,4.26 3.99,5.21 1.29,0.88 2.98,1.35 4.95,1.35 1.82,0 3.65,-0.54 5.35,-1.69 1.69,-1.08 3.04,-2.71 3.99,-4.87 l 36.5,-71.79 c 1.15,-2.37 2.17,-5.35 2.92,-8.87 0.81,-3.46 1.21,-6.98 1.21,-10.43 0,-3.39 -0.4,-6.91 -1.21,-10.5 -0.75,-3.59 -1.77,-6.43 -2.92,-8.53 z m 32.5,-11.91 35.35,69.61 c 2.24,4.41 4,9.48 5.35,15.31 1.29,5.82 1.97,11.78 1.97,17.81 0,6.23 -0.68,12.26 -1.97,18.08 -1.35,5.83 -3.11,10.9 -5.35,15.31 l -35.35,69.61 c -5.55,10.43 -11.51,17.88 -17.81,22.22 -6.37,4.4 -14.22,6.57 -23.63,6.57 -9.55,0 -17.48,-2.17 -23.77,-6.57 -6.37,-4.34 -12.26,-11.79 -17.68,-22.22 l -35.35,-69.61 c -2.37,-4.68 -4.2,-9.82 -5.42,-15.58 -1.28,-5.76 -1.89,-11.72 -1.89,-17.81 0,-6.03 0.61,-11.99 1.89,-17.81 1.22,-5.83 3.05,-10.9 5.42,-15.31 l 35.35,-69.61 c 5.42,-10.43 11.31,-17.88 17.68,-22.22 6.29,-4.4 14.22,-6.57 23.77,-6.57 9.41,0 17.26,2.17 23.63,6.57 6.3,4.34 12.26,11.79 17.81,22.22 z m 159.76,-9.76 v 51.61 l 49.98,131.38 49.97,-131.38 v -51.61 c 0,-5.55 1.56,-10.09 4.75,-13.68 3.18,-3.59 7.31,-5.35 12.32,-5.35 5.01,0 9.14,1.76 12.33,5.29 3.18,3.45 4.74,8.06 4.74,13.74 v 58.18 l -67.05,171.4 c -2.1,5.69 -4.47,9.55 -7.04,11.65 -2.57,2.03 -5.89,3.05 -10.02,3.05 -4.2,0 -7.72,-1.16 -10.5,-3.39 -2.78,-2.24 -5.08,-6.03 -6.98,-11.31 l -66.63,-171.4 v -58.18 c 0,-5.82 1.55,-10.43 4.67,-13.88 3.11,-3.45 7.24,-5.15 12.39,-5.15 4.88,0 8.94,1.76 12.19,5.35 3.25,3.59 4.88,8.13 4.88,13.68 z m 366.24,-19.03 c 5.69,0 10.29,1.56 13.74,4.74 3.53,3.19 5.29,7.32 5.29,12.33 0,4.88 -1.76,8.94 -5.35,12.19 -3.59,3.25 -8.13,4.88 -13.68,4.88 h -48.02 v 195.03 h 48.02 c 5.69,0 10.29,1.56 13.74,4.74 3.53,3.19 5.29,7.32 5.29,12.33 0,5.01 -1.76,9.14 -5.35,12.33 -3.59,3.18 -8.13,4.74 -13.68,4.74 h -130.16 c -5.69,0 -10.3,-1.56 -13.75,-4.74 -3.52,-3.19 -5.28,-7.32 -5.28,-12.33 0,-5.01 1.76,-9.14 5.35,-12.33 3.58,-3.18 8.12,-4.74 13.68,-4.74 h 48.01 v -195.03 h -48.01 c -5.69,0 -10.3,-1.56 -13.75,-4.74 -3.52,-3.19 -5.28,-7.32 -5.28,-12.33 0,-5.01 1.76,-9.14 5.35,-12.33 3.58,-3.18 8.12,-4.74 13.68,-4.74 z m 190.9,263.31 c -10.63,0 -19.77,-2.58 -27.49,-7.72 -7.72,-5.15 -14.43,-13.35 -19.98,-24.45 l -35.28,-70.23 c -2.1,-4.06 -3.66,-8.53 -4.67,-13.27 -1.02,-4.74 -1.49,-9.96 -1.49,-15.51 0,-5.83 0.47,-11.24 1.49,-16.25 1.01,-5.02 2.57,-9.55 4.67,-13.48 l 35.28,-70.23 c 5.35,-10.97 11.85,-19.1 19.64,-24.31 7.86,-5.21 17.07,-7.86 27.83,-7.86 h 60.28 c 5.69,0 10.29,1.56 13.74,4.74 3.53,3.19 5.29,7.32 5.29,12.33 0,4.88 -1.76,8.94 -5.35,12.19 -3.59,3.25 -8.13,4.88 -13.68,4.88 h -60.28 c -3.31,0 -6.43,0.94 -9.34,2.77 -2.91,1.83 -5.22,4.4 -6.98,7.72 l -34.87,70.84 c -1.09,2.37 -1.83,4.94 -2.37,7.58 -0.55,2.65 -0.82,5.49 -0.82,8.47 0,3.18 0.27,6.09 0.82,8.74 0.54,2.64 1.28,5.21 2.37,7.58 l 34.87,70.43 c 1.76,3.32 4.07,5.96 6.98,7.92 2.91,1.97 6.03,2.98 9.34,2.98 h 60.28 c 5.69,0 10.29,1.56 13.74,4.74 3.53,3.19 5.29,7.32 5.29,12.33 0,5.01 -1.76,9.14 -5.35,12.33 -3.59,3.18 -8.13,4.74 -13.68,4.74 z"
   id="path9" />
  <path
   class="fil1 str0"
   d="m 7529.11,9684.27 c 75.17,0 136.11,60.93 136.11,136.1 0,75.18 -60.94,136.11 -136.11,136.11 -75.16,0 -136.1,-60.93 -136.1,-136.11 0,-75.17 60.94,-136.1 136.1,-136.1 z"
   id="path11" />
 </g>
</svg>
